<svg version="1.1" id="Layer_1" xmlns="http://www.w3.org/2000/svg" xmlns:xlink="http://www.w3.org/1999/xlink" x="0px" y="0px"
	 width="100%" viewBox="0 0 187 71" enable-background="new 0 0 187 71" xml:space="preserve">
<path fill="#FDFDFD" opacity="1.000000" stroke="none" 
	d="
M120.000000,72.000000 
	C80.000008,72.000000 40.500019,72.000000 1.000021,72.000000 
	C1.000014,48.333347 1.000014,24.666697 1.000007,1.000034 
	C63.333302,1.000023 125.666603,1.000023 187.999939,1.000011 
	C187.999954,24.666632 187.999954,48.333263 187.999969,71.999947 
	C165.500000,72.000000 143.000000,72.000000 120.000000,72.000000 
M79.537071,57.697323 
	C82.785912,57.697323 86.034760,57.697323 89.005737,57.697323 
	C89.005737,43.807293 89.005737,30.254143 89.005737,16.629669 
	C85.188896,16.629669 81.764481,16.629669 77.844513,16.629669 
	C77.844513,23.721357 77.844513,30.577145 77.844513,38.469879 
	C72.804634,32.380959 68.104668,27.427132 64.278084,21.871719 
	C60.602161,16.535030 56.135536,15.251773 50.171665,16.917629 
	C50.171665,30.488495 50.171665,44.056507 50.171665,57.765663 
	C53.961720,57.765663 57.537083,57.765663 61.718895,57.765663 
	C61.718895,50.777782 61.718895,44.010849 61.718895,36.198376 
	C68.004562,43.792385 73.505135,50.437881 79.537071,57.697323 
M106.085838,55.594776 
	C118.108101,61.223942 130.798065,59.077759 135.924194,50.447956 
	C133.742691,48.486317 131.543716,46.508972 129.410156,44.590439 
	C121.188309,50.263878 114.871796,50.400928 110.499229,45.201553 
	C106.828651,40.836906 106.878326,33.401505 110.606880,29.088078 
	C114.967422,24.043528 121.334480,24.274717 129.391983,29.886532 
	C131.652954,27.816689 133.946335,25.717161 136.390930,23.479204 
	C129.568390,15.733550 121.152641,14.520528 112.096092,16.558220 
	C103.558327,18.479185 97.950958,24.078190 96.320946,32.643097 
	C94.568230,41.852825 97.310471,49.740314 106.085838,55.594776 
M32.822105,25.325645 
	C27.092249,27.484678 21.296902,29.492544 15.684960,31.923759 
	C14.489006,32.441872 13.275451,34.501965 13.279888,35.847672 
	C13.287037,38.016548 13.701924,41.573902 14.984128,42.124695 
	C23.743238,45.887291 32.773769,49.018032 41.791340,52.380314 
	C43.286572,44.249706 43.281277,44.264534 36.242805,41.751152 
	C32.459682,40.400230 28.698391,38.988167 24.772959,37.547047 
	C25.280867,36.980103 25.451664,36.613964 25.720024,36.516514 
	C29.140018,35.274643 32.574368,34.072338 36.004356,32.857967 
	C43.205677,30.308380 43.205505,30.307892 41.897682,22.079735 
	C39.088039,23.086189 36.322613,24.076805 32.822105,25.325645 
M143.754395,31.512503 
	C148.780045,33.331505 153.805710,35.150505 159.668228,37.272400 
	C156.867798,38.274967 155.150772,38.893986 153.430664,39.504311 
	C151.552643,40.170666 149.669632,40.822971 147.792511,41.491852 
	C140.566406,44.066750 140.566956,44.068306 141.303864,52.470173 
	C150.416397,49.096054 159.478027,45.948002 168.301361,42.233860 
	C169.521423,41.720287 169.957565,38.417591 170.016724,36.384583 
	C170.059265,34.922695 169.237457,32.516182 168.173141,32.086403 
	C159.319260,28.511101 150.319321,25.297447 141.363510,21.974550 
	C140.938782,22.224686 140.514069,22.474821 140.089355,22.724957 
	C141.059189,25.543806 142.029037,28.362658 143.754395,31.512503 
z"/>
<path fill="#030303" opacity="1.000000" stroke="none" 
	d="
M79.271393,57.390350 
	C73.505135,50.437881 68.004562,43.792385 61.718895,36.198376 
	C61.718895,44.010849 61.718895,50.777782 61.718895,57.765663 
	C57.537083,57.765663 53.961720,57.765663 50.171665,57.765663 
	C50.171665,44.056507 50.171665,30.488495 50.171665,16.917629 
	C56.135536,15.251773 60.602161,16.535030 64.278084,21.871719 
	C68.104668,27.427132 72.804634,32.380959 77.844513,38.469879 
	C77.844513,30.577145 77.844513,23.721357 77.844513,16.629669 
	C81.764481,16.629669 85.188896,16.629669 89.005737,16.629669 
	C89.005737,30.254143 89.005737,43.807293 89.005737,57.697323 
	C86.034760,57.697323 82.785912,57.697323 79.271393,57.390350 
z"/>
<path fill="#060606" opacity="1.000000" stroke="none" 
	d="
M105.781982,55.381466 
	C97.310471,49.740314 94.568230,41.852825 96.320946,32.643097 
	C97.950958,24.078190 103.558327,18.479185 112.096092,16.558220 
	C121.152641,14.520528 129.568390,15.733550 136.390930,23.479204 
	C133.946335,25.717161 131.652954,27.816689 129.391983,29.886532 
	C121.334480,24.274717 114.967422,24.043528 110.606880,29.088078 
	C106.878326,33.401505 106.828651,40.836906 110.499229,45.201553 
	C114.871796,50.400928 121.188309,50.263878 129.410156,44.590439 
	C131.543716,46.508972 133.742691,48.486317 135.924194,50.447956 
	C130.798065,59.077759 118.108101,61.223942 105.781982,55.381466 
z"/>
<path fill="#080808" opacity="1.000000" stroke="none" 
	d="
M33.189644,25.196533 
	C36.322613,24.076805 39.088039,23.086189 41.897682,22.079735 
	C43.205505,30.307892 43.205677,30.308380 36.004356,32.857967 
	C32.574368,34.072338 29.140018,35.274643 25.720024,36.516514 
	C25.451664,36.613964 25.280867,36.980103 24.772959,37.547047 
	C28.698391,38.988167 32.459682,40.400230 36.242805,41.751152 
	C43.281277,44.264534 43.286572,44.249706 41.791340,52.380314 
	C32.773769,49.018032 23.743238,45.887291 14.984128,42.124695 
	C13.701924,41.573902 13.287037,38.016548 13.279888,35.847672 
	C13.275451,34.501965 14.489006,32.441872 15.684960,31.923759 
	C21.296902,29.492544 27.092249,27.484678 33.189644,25.196533 
z"/>
<path fill="#070707" opacity="1.000000" stroke="none" 
	d="
M143.376633,31.347004 
	C142.029037,28.362658 141.059189,25.543806 140.089355,22.724957 
	C140.514069,22.474821 140.938782,22.224686 141.363510,21.974550 
	C150.319321,25.297447 159.319260,28.511101 168.173141,32.086403 
	C169.237457,32.516182 170.059265,34.922695 170.016724,36.384583 
	C169.957565,38.417591 169.521423,41.720287 168.301361,42.233860 
	C159.478027,45.948002 150.416397,49.096054 141.303864,52.470173 
	C140.566956,44.068306 140.566406,44.066750 147.792511,41.491852 
	C149.669632,40.822971 151.552643,40.170666 153.430664,39.504311 
	C155.150772,38.893986 156.867798,38.274967 159.668228,37.272400 
	C153.805710,35.150505 148.780045,33.331505 143.376633,31.347004 
z"/>
</svg>